<svg width="526" height="441" viewBox="0 0 526 441" fill="none" xmlns="http://www.w3.org/2000/svg">
<g filter="url(#filter0_d)">
<path d="M513 218.645C513 263.38 486.361 279 453.5 279C420.639 279 394 263.38 394 218.645C394 173.91 453.5 117 453.5 117C453.5 117 513 173.91 513 218.645Z" fill="white"/>
<path d="M450.97 272.31L451.581 234.833L477 188.47L451.677 228.955L451.951 212.104L469.47 178.56L452.024 207.645V207.645L452.517 177.338L471.277 150.633L452.595 172.572L452.904 117L450.965 190.567L451.124 187.532L432.051 158.426L450.818 193.358L449.041 227.206L448.988 226.307L427 195.677L448.921 229.482L448.699 233.714L448.659 233.778L448.677 234.126L444.169 320H450.193L450.915 275.644L472.783 241.923L450.97 272.31V272.31Z" fill="#10EAF0"/>
<path d="M389 177.762C389 235.752 354.526 256 312 256C269.474 256 235 235.752 235 177.762C235 119.772 312 46 312 46C312 46 389 119.772 389 177.762Z" fill="white"/>
<path d="M309.161 247.214L309.954 198.661L343 138.594L310.079 191.045L310.436 169.214L333.211 125.756L310.53 163.436V163.436L311.172 124.172L335.56 89.5739L311.273 117.997L311.675 46L309.154 141.312L309.361 137.38L284.566 99.6704L308.963 144.927L306.653 188.779L306.584 187.615L278 147.932L306.498 191.727L306.209 197.211L306.157 197.294L306.18 197.744L300.319 309H308.151L309.09 251.534L337.518 207.846L309.161 247.214V247.214Z" fill="#2B3595"/>
<path d="M508 328.998C508 333.318 495.319 337.352 473.411 340.749C433.711 346.911 363.717 351 283.998 351C160.289 351 60 341.151 60 328.998C60 327.319 61.925 325.674 65.5721 324.101C69.6854 322.319 75.9955 320.623 84.2048 319.038C101.128 315.769 126.132 312.974 156.629 310.898C192.03 308.492 234.842 307.06 281.024 307.005C282.012 307.001 283.004 306.999 283.998 307.001C289.561 307.001 295.076 307.02 300.542 307.06C303.11 307.077 305.666 307.1 308.211 307.129C335.411 307.415 361.153 308.18 384.546 309.334C385.591 309.385 386.631 309.44 387.667 309.492C388.021 309.509 388.375 309.53 388.728 309.547C388.823 309.552 388.918 309.556 389.013 309.564C393.61 309.804 398.106 310.059 402.501 310.329C403.943 310.415 405.371 310.504 406.787 310.598C420.543 311.483 433.241 312.513 444.661 313.671C446.612 313.867 448.525 314.068 450.401 314.273C464.852 315.841 477.019 317.623 486.394 319.559C500.248 322.418 508 325.618 508 328.998Z" fill="#4651B8"/>
<path opacity="0.1" d="M385 339C412.062 339 434 333.851 434 327.5C434 321.149 412.062 316 385 316C357.938 316 336 321.149 336 327.5C336 333.851 357.938 339 385 339Z" fill="black"/>
<path opacity="0.1" d="M508 328.355C508 332.636 495.243 336.633 473.202 340C456.537 338.226 445 334.393 445 329.955C445 324.429 462.872 319.847 486.263 319C500.202 321.833 508 325.005 508 328.355Z" fill="black"/>
<path opacity="0.1" d="M303 323.5C303 330.957 249.941 337 184.492 337C119.658 337 66.983 331.072 66 323.71C78.5841 318.207 111.715 313.482 156.95 310.365C165.788 310.127 175.011 310 184.492 310C249.941 310 303 316.043 303 323.5Z" fill="black"/>
<rect x="84" y="30" width="197" height="295" fill="white"/>
<rect x="96" y="132" width="185" height="91" fill="#2F2E41"/>
<rect x="171" y="135" width="183" height="86" fill="#2B3595"/>
<rect x="182" y="147" width="41" height="15" fill="white"/>
<rect x="192" y="173" width="150" height="4" fill="white"/>
<rect x="192" y="183" width="150" height="4" fill="white"/>
<rect x="192" y="194" width="150" height="4" fill="white"/>
<rect x="192" y="204" width="150" height="4" fill="white"/>
<rect x="97" y="63" width="41" height="15" fill="#10EAF0"/>
<rect x="108" y="89" width="150" height="4" fill="#10EAF0"/>
<rect x="108" y="99" width="150" height="4" fill="#10EAF0"/>
<rect x="108" y="110" width="150" height="4" fill="#10EAF0"/>
<rect x="108" y="120" width="150" height="4" fill="#10EAF0"/>
<rect x="99" y="232" width="41" height="15" fill="#10EAF0"/>
<rect x="109" y="258" width="150" height="4" fill="#10EAF0"/>
<rect x="109" y="268" width="150" height="4" fill="#10EAF0"/>
<rect x="109" y="279" width="150" height="4" fill="#10EAF0"/>
<rect x="109" y="289" width="150" height="4" fill="#10EAF0"/>
<path d="M372 90.4531C372 90.4531 380.17 100.845 379.149 108.196C378.128 115.547 396 98.0573 396 98.0573C396 98.0573 389.872 85.3836 393.191 79.3003C396.511 73.217 372 90.4531 372 90.4531Z" fill="#FFB9B9"/>
<path d="M400.965 303C400.965 303 411.569 314.717 409.801 317.264C408.034 319.811 376.981 329.49 373.446 328.981C369.912 328.471 368.144 325.924 369.407 325.16C370.669 324.396 378.748 320.066 378.748 320.066L385.565 312.17C385.565 312.17 390.614 309.368 390.614 307.84C390.614 306.311 400.965 303 400.965 303Z" fill="#2F2E41"/>
<path d="M382.814 316C382.814 316 378.831 322.5 378.084 322.75C377.337 323 381.818 332 381.818 332L392.274 328.75L398 324L396.755 317.5L382.814 316Z" fill="#FFB9B9"/>
<path d="M371.66 189L366.603 211.627C366.603 211.627 349.158 251.034 361.294 257.898L387.841 309L402 302.644L378.234 250.271L389.105 190.017L371.66 189Z" fill="#D0CDE1"/>
<path opacity="0.1" d="M371.66 189L366.603 211.627C366.603 211.627 349.158 251.034 361.294 257.898L387.841 309L402 302.644L378.234 250.271L389.105 190.017L371.66 189Z" fill="black"/>
<path d="M373.638 192.527H371.048C370.846 200.354 371.285 208.184 372.361 215.939C374.148 228.918 378.743 258.692 378.743 258.692C378.743 258.692 378.232 264.29 379.764 266.072C381.296 267.853 381.551 265.563 381.806 269.634C382.061 273.706 384.486 302.015 384.486 302.015C384.486 302.015 386.146 307.807 384.359 309.079C382.572 310.351 378.998 317.222 381.551 318.24C384.104 319.258 401.717 320.531 402.483 319.767C403.249 319.004 402.483 271.161 402.483 271.161C402.483 271.161 401.972 261.491 401.462 260.982C400.951 260.473 398.654 253.602 399.42 252.075C400.185 250.548 399.675 245.968 399.675 245.204C399.675 244.441 397.377 245.204 399.42 241.896C401.462 238.588 401.717 212.122 401.717 212.122C401.717 212.122 412.693 195.326 409.375 191L373.638 192.527Z" fill="#D0CDE1"/>
<path d="M379 95C388.389 95 396 87.3888 396 78C396 68.6112 388.389 61 379 61C369.611 61 362 68.6112 362 78C362 87.3888 369.611 95 379 95Z" fill="#FFB9B9"/>
<path d="M395.851 96C395.851 96 385.758 98.5402 381.72 104.637L378.188 105.399V108.955C378.188 108.955 371.627 130.039 373.141 139.184C374.655 148.329 373.141 166.11 370.618 170.937C368.095 175.763 367.338 176.779 368.599 178.811C369.861 180.844 371.627 187.702 370.366 190.75C369.104 193.799 370.366 196.847 381.973 197.609C393.58 198.371 409.981 198.371 409.981 194.307C409.981 190.242 408.972 178.811 409.981 175.763C410.99 172.715 411.495 170.683 410.99 167.888C410.486 165.094 412 133.849 412 133.849C412 133.849 412.252 102.605 395.851 96Z" fill="#2F2E41"/>
<path d="M371.733 174L357.648 195.139C357.648 195.139 342.796 208.802 348.173 214.989C353.551 221.176 367.635 196.944 367.635 196.944L383 179.414L371.733 174Z" fill="#FFB9B9"/>
<path d="M381.44 324.224C381.44 324.224 380.925 321 379.122 321C377.318 321 365.211 328.936 365.211 328.936C365.211 328.936 349.24 330.671 355.423 333.895C361.605 337.119 399.472 337.615 399.73 336.375C399.987 335.135 400.502 322.908 398.699 322.946C396.896 322.984 382.47 325.712 382.47 325.712L381.44 324.224Z" fill="#2F2E41"/>
<path d="M380.188 68.5859C379.59 68.8836 378.929 69.034 378.262 69.0248C377.573 69.0643 376.751 69.0214 376.384 68.4318C376.211 68.0438 376.131 67.6201 376.15 67.1951C376.004 66.0921 375.417 65.0974 374.525 64.442C373.633 63.7865 372.514 63.5275 371.428 63.7249C371.501 64.5761 371.758 65.4009 372.18 66.1414C370.667 66.6591 369.001 66.4355 367.675 65.5367L367.415 69.0055C366.499 69.447 365.325 69.5391 364.526 68.9072C363.727 68.2753 363.664 66.7924 364.567 66.3254C363.451 66.0907 362.086 65.5865 362.004 64.4397C361.929 63.3933 363.03 62.6274 363.233 61.5984C363.399 60.7592 362.943 59.847 363.265 59.0557C363.69 58.0162 365.23 57.7493 365.539 56.6693C365.696 56.1193 365.47 55.5309 365.524 54.9611C365.665 53.469 367.526 52.8495 369.01 52.9343C370.494 53.0191 372.114 53.4165 373.374 52.6225C373.986 52.2375 374.413 51.6213 374.95 51.1368C376.473 49.82 378.658 49.6284 380.383 50.6604C380.98 51.0346 381.501 51.5533 382.167 51.7808C383.529 52.2463 384.95 51.3655 386.374 51.1624C387.43 50.9802 388.51 51.2956 389.305 52.0184C390.089 52.7781 390.268 53.9739 389.742 54.933C390.577 54.7907 391.463 54.6531 392.25 54.9687C393.038 55.2843 393.639 56.235 393.275 57.0065C393.14 57.2088 393.033 57.429 392.957 57.6609C392.883 58.1097 393.312 58.4935 393.745 58.6222C394.178 58.7509 394.647 58.7268 395.071 58.8832C396.822 59.5292 396.402 62.3511 397.779 63.6171C398.252 63.9637 398.752 64.2717 399.273 64.5382C400.683 65.5238 401.217 67.3695 400.555 68.9652C400.278 69.5819 399.816 70.1704 399.871 70.8447C399.95 71.7905 400.955 72.3085 401.66 72.9369C402.979 74.1639 403.37 76.1058 402.628 77.754C401.98 79.1177 400.576 80.1514 400.434 81.6568C400.372 82.3111 400.567 82.9644 400.555 83.6217C400.472 84.8524 399.837 85.9777 398.83 86.6782C397.829 87.3616 396.703 87.8343 395.517 88.0681C394.96 88.2025 394.296 88.4129 394.161 88.9739C394.001 89.639 394.737 90.2443 394.661 90.9244C394.613 91.2199 394.451 91.4842 394.211 91.6595C393.214 92.4451 391.638 91.7716 391.029 90.654C390.419 89.5364 390.497 88.182 390.592 86.9103L390.935 82.2858C391.042 80.847 391.032 79.1383 389.869 78.2979C388.582 77.3689 386.709 78.121 385.255 77.4932C383.74 76.8391 383.196 74.9248 383.257 73.2638C383.318 71.6027 383.79 69.9392 383.519 68.2994C383.183 66.2675 381.39 64.9018 379.58 66.2186C381.171 66.0001 381.446 67.8408 380.188 68.5859Z" fill="#2F2E41"/>
<path opacity="0.1" d="M394.821 108.137C394.821 108.137 384.538 112.217 384.538 120.886C384.538 129.555 385.052 141.028 383.253 144.853C381.453 148.678 379.911 149.953 380.939 153.012C381.967 156.072 383.767 155.562 380.939 157.857C378.111 160.151 378.368 156.327 378.111 160.151C377.854 163.976 380.682 164.486 378.111 166.271C375.541 168.056 368.857 175.195 371.684 177.49C374.512 179.784 381.967 187.179 384.538 184.374C387.109 181.569 388.394 174.43 391.993 174.94C395.592 175.45 396.107 175.705 395.592 173.155C395.078 170.605 392.765 170.605 395.849 169.84C398.934 169.076 400.22 170.86 399.191 168.311C398.163 165.761 397.392 164.741 399.449 161.936C401.505 159.132 402.533 158.367 402.276 155.562C402.019 152.757 407.932 127.515 407.932 127.515C407.932 127.515 409.731 106.097 394.821 108.137Z" fill="black"/>
<path opacity="0.1" d="M391.821 107.137C391.821 107.137 381.538 111.217 381.538 119.886C381.538 128.555 382.052 140.028 380.253 143.853C378.453 147.678 376.911 148.953 377.939 152.012C378.967 155.072 380.767 154.562 377.939 156.857C375.111 159.151 375.368 155.327 375.111 159.151C374.854 162.976 377.682 163.486 375.111 165.271C372.541 167.056 365.857 174.195 368.684 176.49C371.512 178.784 378.967 186.179 381.538 183.374C384.109 180.569 385.394 173.43 388.993 173.94C392.592 174.45 393.107 174.705 392.592 172.155C392.078 169.605 389.765 169.605 392.849 168.84C395.934 168.076 397.22 169.86 396.191 167.311C395.163 164.761 394.392 163.741 396.449 160.936C398.505 158.132 399.533 157.367 399.276 154.562C399.019 151.757 404.932 126.515 404.932 126.515C404.932 126.515 406.732 105.097 391.821 107.137Z" fill="black"/>
<path d="M392.821 106.137C392.821 106.137 382.538 110.217 382.538 118.886C382.538 127.555 383.052 139.028 381.253 142.853C379.453 146.678 377.911 147.953 378.939 151.012C379.967 154.072 381.767 153.562 378.939 155.857C376.111 158.151 376.368 154.327 376.111 158.151C375.854 161.976 378.682 162.486 376.111 164.271C373.541 166.056 366.857 173.195 369.684 175.49C372.512 177.784 379.967 185.179 382.538 182.374C385.109 179.569 386.394 172.43 389.993 172.94C393.592 173.45 394.107 173.705 393.592 171.155C393.078 168.605 390.765 168.605 393.849 167.84C396.934 167.076 398.22 168.86 397.191 166.311C396.163 163.761 395.392 162.741 397.449 159.936C399.505 157.132 400.533 156.367 400.276 153.562C400.019 150.757 405.932 125.515 405.932 125.515C405.932 125.515 407.731 104.097 392.821 106.137Z" fill="#2F2E41"/>
<path d="M446 283C446 305.109 459.865 323 477 323Z" fill="#2F2E41"/>
<path d="M478 323C478 300.338 493.654 282 513 282Z" fill="#10EAF0"/>
<path d="M458 285C458 306.004 466.945 323 478 323Z" fill="#10EAF0"/>
<path d="M478 323C478 294.258 495.891 271 518 271Z" fill="#2F2E41"/>
<path d="M471 323.288C471 323.288 475.569 323.157 476.946 322.249C478.322 321.34 483.973 320.255 484.315 321.712C484.656 323.17 491.181 328.96 486.023 328.999C480.865 329.037 474.038 328.254 472.664 327.478C471.289 326.703 471 323.288 471 323.288Z" fill="#A8A8A8"/>
<path opacity="0.2" d="M486.116 329.466C480.957 329.507 474.13 328.685 472.756 327.871C471.709 327.251 471.292 325.026 471.153 324C471.056 324.004 471 324.006 471 324.006C471 324.006 471.289 327.589 472.664 328.403C474.038 329.217 480.865 330.039 486.024 329.999C487.513 329.987 488.027 329.472 487.999 328.709C487.792 329.17 487.224 329.458 486.116 329.466Z" fill="black"/>
</g>
<defs>
<filter id="filter0_d" x="0" y="0" width="578" height="441" filterUnits="userSpaceOnUse" color-interpolation-filters="sRGB">
<feFlood flood-opacity="0" result="BackgroundImageFix"/>
<feColorMatrix in="SourceAlpha" type="matrix" values="0 0 0 0 0 0 0 0 0 0 0 0 0 0 0 0 0 0 127 0"/>
<feOffset dy="30"/>
<feGaussianBlur stdDeviation="30"/>
<feColorMatrix type="matrix" values="0 0 0 0 0.541176 0 0 0 0 0.584314 0 0 0 0 0.619608 0 0 0 0.2 0"/>
<feBlend mode="normal" in2="BackgroundImageFix" result="effect1_dropShadow"/>
<feBlend mode="normal" in="SourceGraphic" in2="effect1_dropShadow" result="shape"/>
</filter>
</defs>
</svg>
