<svg width="414" height="394" viewBox="0 0 414 394" fill="none" xmlns="http://www.w3.org/2000/svg">
<g filter="url(#filter0_d)">
<path d="M466 244.995C466 256.581 451.14 267.398 425.466 276.509C378.943 293.033 296.918 304 203.497 304C58.5265 304 -59 277.586 -59 244.995C-59 240.491 -56.7442 236.079 -52.4702 231.862C-47.65 227.084 -40.2552 222.534 -30.635 218.283C-10.8028 209.516 18.4979 202.022 54.2374 196.453C95.7227 190.001 145.893 186.162 200.013 186.013C201.171 186.001 202.332 185.998 203.497 186.001C210.017 186.001 216.48 186.055 222.885 186.162C225.894 186.208 228.89 186.269 231.873 186.345C263.748 187.113 293.913 189.164 321.327 192.258C322.552 192.396 323.77 192.545 324.984 192.682C325.399 192.728 325.814 192.785 326.229 192.831C326.34 192.843 326.451 192.854 326.562 192.877C331.949 193.519 337.218 194.203 342.369 194.928C344.058 195.158 345.732 195.398 347.391 195.65C363.511 198.022 378.391 200.784 391.775 203.89C394.061 204.417 396.303 204.955 398.502 205.506C415.436 209.711 429.694 214.49 440.68 219.681C456.916 227.347 466 235.93 466 244.995Z" fill="#4651B8"/>
<path d="M369 165.41C369 197.719 349.748 209 326 209C302.252 209 283 197.719 283 165.41C283 133.102 326 92 326 92C326 92 369 133.102 369 165.41Z" fill="white"/>
<path d="M323.258 204.701L323.698 177.747L342 144.402L323.767 173.519L323.965 161.4L336.578 137.275L324.017 158.193L324.372 136.396L337.88 117.189L324.428 132.968L324.651 93L323.255 145.91L323.369 143.728L309.636 122.794L323.149 147.918L321.869 172.261L321.831 171.615L306 149.586L321.783 173.898L321.623 176.942L321.595 176.988L321.608 177.238L318.361 239H322.699L323.219 207.099L338.964 182.846L323.258 204.701Z" fill="#10EAF0"/>
<path d="M279 136.743C279 178.441 254.152 193 223.5 193C192.848 193 168 178.441 168 136.743C168 95.0458 223.5 42 223.5 42C223.5 42 279 95.0458 279 136.743Z" fill="white"/>
<path d="M221.532 186.599L222.106 151.707L246 108.541L222.196 146.234L222.454 130.545L238.922 99.315L222.522 126.393V126.394L222.986 98.1766L240.621 73.3136L223.059 93.7394L223.349 42L221.527 110.494L221.676 107.668L203.748 80.5692L221.389 113.092L219.718 144.605L219.669 143.769L199 115.251L219.606 146.724L219.397 150.665L219.36 150.725L219.377 151.048L215.138 231H220.801L221.481 189.703L242.036 158.308L221.532 186.599Z" fill="#2B3595"/>
<path opacity="0.1" d="M276.5 253C296.106 253 312 249.194 312 244.5C312 239.806 296.106 236 276.5 236C256.894 236 241 239.806 241 244.5C241 249.194 256.894 253 276.5 253Z" fill="black"/>
<path opacity="0.1" d="M365 244.682C365 247.74 355.888 250.595 340.144 253C328.241 251.733 320 248.995 320 245.825C320 241.878 332.766 238.605 349.474 238C359.43 240.024 365 242.289 365 244.682Z" fill="black"/>
<path opacity="0.1" d="M217 241.5C217 246.747 178.717 251 131.494 251C84.7149 251 46.7092 246.828 46 241.648C55.0796 237.775 78.984 234.45 111.622 232.257C117.999 232.089 124.654 232 131.494 232C178.717 232 217 236.253 217 241.5Z" fill="black"/>
<rect x="59" y="30" width="142" height="212" fill="white"/>
<rect x="68" y="104" width="133" height="65" fill="#2F2E41"/>
<rect x="122" y="106" width="132" height="62" fill="#2B3595"/>
<rect x="130" y="114" width="30" height="11" fill="white"/>
<rect x="137" y="133" width="108" height="3" fill="white"/>
<rect x="137" y="140" width="108" height="3" fill="white"/>
<rect x="137" y="148" width="108" height="3" fill="white"/>
<rect x="137" y="155" width="108" height="3" fill="white"/>
<rect x="68" y="54" width="30" height="11" fill="#10EAF0"/>
<rect x="77" y="72" width="108" height="3" fill="#10EAF0"/>
<rect x="77" y="80" width="108" height="3" fill="#10EAF0"/>
<rect x="77" y="88" width="108" height="3" fill="#10EAF0"/>
<rect x="77" y="95" width="108" height="3" fill="#10EAF0"/>
<rect x="70" y="175" width="30" height="11" fill="#10EAF0"/>
<rect x="77" y="194" width="108" height="3" fill="#10EAF0"/>
<rect x="77" y="201" width="108" height="3" fill="#10EAF0"/>
<rect x="77" y="209" width="108" height="3" fill="#10EAF0"/>
<rect x="77" y="216" width="108" height="3" fill="#10EAF0"/>
<path d="M267 73.9507C267 73.9507 272.787 81.4202 272.064 86.7035C271.34 91.9868 284 79.4161 284 79.4161C284 79.4161 279.66 70.307 282.011 65.9346C284.362 61.5622 267 73.9507 267 73.9507Z" fill="#FFB9B9"/>
<path d="M287.389 226C287.389 226 295.148 234.562 293.855 236.424C292.562 238.285 269.84 245.358 267.253 244.986C264.667 244.614 263.374 242.752 264.298 242.194C265.221 241.635 271.133 238.471 271.133 238.471L276.12 232.701C276.12 232.701 279.815 230.653 279.815 229.537C279.815 228.42 287.389 226 287.389 226Z" fill="#2F2E41"/>
<path d="M274.37 236C274.37 236 271.582 240.875 271.059 241.063C270.536 241.25 273.673 248 273.673 248L280.992 245.563L285 242L284.129 237.125L274.37 236Z" fill="#FFB9B9"/>
<path d="M266.425 145L262.829 161.216C262.829 161.216 250.423 189.458 259.053 194.377L277.932 231L288 226.445L271.099 188.911L278.831 145.729L266.425 145Z" fill="#D0CDE1"/>
<path opacity="0.1" d="M266.425 145L262.829 161.216C262.829 161.216 250.423 189.458 259.053 194.377L277.932 231L288 226.445L271.099 188.911L278.831 145.729L266.425 145Z" fill="black"/>
<path d="M267.894 147.101H266.034C265.889 152.743 266.205 158.388 266.977 163.979C268.26 173.336 271.559 194.801 271.559 194.801C271.559 194.801 271.193 198.837 272.292 200.121C273.392 201.406 273.575 199.755 273.758 202.69C273.942 205.625 275.683 226.034 275.683 226.034C275.683 226.034 276.874 230.209 275.591 231.127C274.308 232.044 271.742 236.997 273.575 237.731C275.408 238.465 288.053 239.382 288.603 238.832C289.153 238.282 288.603 203.791 288.603 203.791C288.603 203.791 288.236 196.819 287.87 196.452C287.503 196.085 285.854 191.132 286.404 190.031C286.954 188.93 286.587 185.628 286.587 185.078C286.587 184.527 284.938 185.078 286.404 182.693C287.87 180.308 288.053 161.227 288.053 161.227C288.053 161.227 295.934 149.119 293.551 146L267.894 147.101Z" fill="#D0CDE1"/>
<path d="M272 77C278.627 77 284 71.6274 284 65C284 58.3726 278.627 53 272 53C265.373 53 260 58.3726 260 65C260 71.6274 265.373 77 272 77Z" fill="#FFB9B9"/>
<path d="M284.255 78C284.255 78 276.915 79.818 273.978 84.1812L271.409 84.7266V87.2718C271.409 87.2718 266.638 102.361 267.739 108.906C268.84 115.451 267.739 128.177 265.904 131.631C264.069 135.085 263.518 135.813 264.436 137.267C265.353 138.721 266.638 143.63 265.72 145.812C264.803 147.993 265.72 150.175 274.162 150.72C282.604 151.266 294.532 151.266 294.532 148.357C294.532 145.448 293.798 137.267 294.532 135.085C295.266 132.904 295.633 131.449 295.266 129.45C294.899 127.45 296 105.088 296 105.088C296 105.088 296.183 82.7268 284.255 78Z" fill="#2F2E41"/>
<path d="M266.862 134L256.69 149.099C256.69 149.099 245.964 158.859 249.847 163.278C253.731 167.697 263.903 150.388 263.903 150.388L275 137.867L266.862 134Z" fill="#FFB9B9"/>
<path d="M273.685 241.418C273.685 241.418 273.316 239 272.022 239C270.728 239 262.043 244.952 262.043 244.952C262.043 244.952 250.585 246.254 255.021 248.671C259.456 251.089 286.621 251.461 286.806 250.531C286.991 249.601 287.36 240.431 286.067 240.459C284.773 240.488 274.424 242.534 274.424 242.534L273.685 241.418Z" fill="#2F2E41"/>
<path d="M272.309 58.2757C271.87 58.4883 271.387 58.5957 270.899 58.5892C270.395 58.6174 269.793 58.5867 269.525 58.1656C269.398 57.8884 269.34 57.5858 269.354 57.2822C269.247 56.4943 268.817 55.7838 268.164 55.3157C267.512 54.8475 266.693 54.6625 265.899 54.8035C265.952 55.4115 266.14 56.0006 266.449 56.5296C265.342 56.8994 264.123 56.7397 263.152 56.0976L262.962 58.5754C262.292 58.8907 261.433 58.9565 260.849 58.5052C260.264 58.0538 260.217 56.9945 260.878 56.661C260.062 56.4934 259.063 56.1332 259.003 55.314C258.948 54.5666 259.754 54.0196 259.902 53.2846C260.024 52.6851 259.69 52.0336 259.926 51.4684C260.236 50.7259 261.363 50.5352 261.589 49.7638C261.704 49.3709 261.539 48.9507 261.578 48.5436C261.682 47.4778 263.043 47.0353 264.129 47.0959C265.215 47.1565 266.4 47.4403 267.323 46.8732C267.77 46.5982 268.083 46.1581 268.476 45.812C269.59 44.8714 271.189 44.7345 272.451 45.4717C272.888 45.739 273.269 46.1095 273.756 46.272C274.753 46.6045 275.793 45.9753 276.835 45.8303C277.607 45.7001 278.397 45.9254 278.979 46.4417C279.553 46.9843 279.684 47.8385 279.299 48.5236C279.91 48.422 280.558 48.3236 281.134 48.5491C281.711 48.7745 282.151 49.4536 281.884 50.0046C281.785 50.1491 281.707 50.3064 281.652 50.4721C281.598 50.7927 281.911 51.0668 282.228 51.1587C282.545 51.2506 282.888 51.2334 283.198 51.3451C284.479 51.8066 284.172 53.8222 285.18 54.7265C285.526 54.9741 285.891 55.1941 286.273 55.3844C287.305 56.0884 287.696 57.4068 287.211 58.5466C287.009 58.9871 286.67 59.4075 286.711 59.8891C286.768 60.5646 287.503 60.9346 288.019 61.3835C288.985 62.2599 289.271 63.647 288.728 64.8243C288.254 65.7983 287.226 66.5367 287.122 67.612C287.077 68.0794 287.219 68.546 287.211 69.0155C287.15 69.8946 286.685 70.6983 285.949 71.1987C285.217 71.6868 284.392 72.0245 283.524 72.1915C283.117 72.2875 282.631 72.4378 282.532 72.8385C282.416 73.3136 282.954 73.7459 282.898 74.2317C282.863 74.4428 282.745 74.6316 282.569 74.7568C281.84 75.318 280.686 74.8369 280.24 74.0386C279.795 73.2403 279.852 72.2729 279.921 71.3645L280.172 68.0613C280.25 67.0335 280.243 65.813 279.392 65.2128C278.451 64.5492 277.08 65.0864 276.016 64.638C274.907 64.1708 274.509 62.8034 274.554 61.617C274.599 60.4305 274.944 59.2423 274.746 58.071C274.499 56.6196 273.188 55.6442 271.864 56.5847C273.028 56.4286 273.228 57.7434 272.309 58.2757Z" fill="#2F2E41"/>
<path opacity="0.1" d="M283.383 86.0978C283.383 86.0978 275.879 89.0118 275.879 95.204C275.879 101.396 276.254 109.592 274.941 112.324C273.628 115.055 272.503 115.966 273.253 118.152C274.003 120.337 275.316 119.973 273.253 121.612C271.189 123.251 271.377 120.519 271.189 123.251C271.002 125.983 273.065 126.347 271.189 127.622C269.313 128.897 264.436 133.996 266.499 135.635C268.563 137.275 274.003 142.556 275.879 140.553C277.755 138.549 278.693 133.45 281.319 133.814C283.946 134.178 284.321 134.361 283.946 132.539C283.571 130.718 281.882 130.718 284.133 130.172C286.385 129.625 287.323 130.9 286.572 129.079C285.822 127.258 285.259 126.529 286.76 124.526C288.26 122.523 289.011 121.976 288.823 119.973C288.636 117.969 292.95 99.9392 292.95 99.9392C292.95 99.9392 294.264 84.6408 283.383 86.0978Z" fill="black"/>
<path opacity="0.1" d="M281.383 86.0978C281.383 86.0978 273.879 89.0118 273.879 95.204C273.879 101.396 274.254 109.592 272.941 112.324C271.628 115.055 270.503 115.966 271.253 118.152C272.003 120.337 273.316 119.973 271.253 121.612C269.189 123.251 269.377 120.519 269.189 123.251C269.002 125.983 271.065 126.347 269.189 127.622C267.313 128.897 262.436 133.996 264.499 135.635C266.563 137.275 272.003 142.556 273.879 140.553C275.755 138.549 276.693 133.45 279.319 133.814C281.946 134.178 282.321 134.361 281.946 132.539C281.571 130.718 279.882 130.718 282.133 130.172C284.385 129.625 285.323 130.9 284.572 129.079C283.822 127.258 283.259 126.529 284.76 124.526C286.26 122.523 287.011 121.976 286.823 119.973C286.636 117.969 290.95 99.9392 290.95 99.9392C290.95 99.9392 292.264 84.6408 281.383 86.0978Z" fill="black"/>
<path d="M281.383 85.0978C281.383 85.0978 273.879 88.0118 273.879 94.204C273.879 100.396 274.254 108.592 272.941 111.324C271.628 114.055 270.503 114.966 271.253 117.152C272.003 119.337 273.316 118.973 271.253 120.612C269.189 122.251 269.377 119.519 269.189 122.251C269.002 124.983 271.065 125.347 269.189 126.622C267.313 127.897 262.436 132.996 264.499 134.635C266.563 136.275 272.003 141.556 273.879 139.553C275.755 137.549 276.693 132.45 279.319 132.814C281.946 133.178 282.321 133.361 281.946 131.539C281.571 129.718 279.882 129.718 282.133 129.172C284.385 128.625 285.323 129.9 284.572 128.079C283.822 126.258 283.259 125.529 284.76 123.526C286.26 121.523 287.011 120.976 286.823 118.973C286.636 116.969 290.95 98.9392 290.95 98.9392C290.95 98.9392 292.264 83.6408 281.383 85.0978Z" fill="#2F2E41"/>
<path d="M320 212C320 228.029 329.84 241 342 241L320 212Z" fill="#2F2E41"/>
<path d="M343 241C343 224.418 354.182 211 368 211L343 241Z" fill="#10EAF0"/>
<path d="M329 214C329 228.924 335.262 241 343 241L329 214Z" fill="#10EAF0"/>
<path d="M343 241C343 220.549 355.971 204 372 204L343 241Z" fill="#2F2E41"/>
<path d="M338 240.716C338 240.716 341.225 240.618 342.197 239.937C343.169 239.255 347.158 238.441 347.399 239.534C347.64 240.627 352.245 244.97 348.604 244.999C344.963 245.028 340.144 244.441 339.174 243.859C338.204 243.277 338 240.716 338 240.716Z" fill="#A8A8A8"/>
<path opacity="0.2" d="M348.67 245.644C345.029 245.671 340.209 245.123 339.239 244.581C338.501 244.167 338.206 242.684 338.108 242C338.039 242.003 338 242.004 338 242.004C338 242.004 338.204 244.393 339.174 244.935C340.145 245.478 344.964 246.026 348.605 245.999C349.656 245.991 350.019 245.648 349.999 245.139C349.853 245.446 349.452 245.638 348.67 245.644Z" fill="black"/>
</g>
<defs>
<filter id="filter0_d" x="-119" y="0" width="645" height="394" filterUnits="userSpaceOnUse" color-interpolation-filters="sRGB">
<feFlood flood-opacity="0" result="BackgroundImageFix"/>
<feColorMatrix in="SourceAlpha" type="matrix" values="0 0 0 0 0 0 0 0 0 0 0 0 0 0 0 0 0 0 127 0"/>
<feOffset dy="30"/>
<feGaussianBlur stdDeviation="30"/>
<feColorMatrix type="matrix" values="0 0 0 0 0.541176 0 0 0 0 0.584314 0 0 0 0 0.619608 0 0 0 0.2 0"/>
<feBlend mode="normal" in2="BackgroundImageFix" result="effect1_dropShadow"/>
<feBlend mode="normal" in="SourceGraphic" in2="effect1_dropShadow" result="shape"/>
</filter>
</defs>
</svg>
